<svg width="197" height="120" viewBox="0 0 197 120" fill="none" xmlns="http://www.w3.org/2000/svg">
<g clip-path="url(#clip0_148_1552)">
<path d="M16.0454 20.5933H4.39073C3.22623 20.5933 2.10943 21.0559 1.28601 21.8794C0.462582 22.703 0 23.8199 0 24.9846V36.6388C0 37.8034 0.462582 38.9203 1.28601 39.7439C2.10943 40.5674 3.22623 41.0301 4.39073 41.0301H7.34304C7.62589 41.0303 7.90101 41.1223 8.12708 41.2923C8.35315 41.4623 8.51796 41.7011 8.59674 41.9728L10.218 47.5859L11.9883 41.9445C12.071 41.6791 12.2364 41.4471 12.4602 41.2823C12.684 41.1175 12.9546 41.0284 13.2326 41.0282H16.0454C16.6219 41.0284 17.1928 40.9151 17.7255 40.6946C18.2582 40.4741 18.7422 40.1508 19.15 39.7432C19.5577 39.3356 19.8812 38.8516 20.1018 38.319C20.3225 37.7863 20.4361 37.2153 20.4361 36.6388V24.9827C20.4356 23.8184 19.9728 22.7019 19.1494 21.8788C18.326 21.0557 17.2095 20.5933 16.0454 20.5933Z" fill="#EC9B57"/>
<path d="M16.0716 26.1103C13.6208 23.7214 11.3057 25.8953 10.3141 27.1096C10.2499 27.1882 10.17 27.2525 10.0795 27.2983C9.98896 27.344 9.88981 27.3702 9.7885 27.3752C9.68718 27.3802 9.58596 27.3638 9.49137 27.3271C9.39679 27.2905 9.31097 27.2343 9.23947 27.1624C8.81167 26.7451 8.33201 26.3845 7.81232 26.0895C6.2551 25.209 4.13231 25.2279 2.84091 27.4772C1.63813 29.5777 4.42454 32.5454 6.83955 34.48C7.92361 35.323 9.08581 36.0605 10.3103 36.6822C10.6682 36.8663 11.08 36.9171 11.472 36.8256C11.8639 36.7341 12.2106 36.5061 12.45 36.1826C12.8912 35.5792 13.8131 34.3216 14.4955 33.4015C16.4185 30.8127 17.9022 27.8996 16.0716 26.1103Z" fill="white"/>
<path d="M181.676 21.4324H53.6506C45.4439 21.4324 38.791 28.0861 38.791 36.2938V87.2472C38.791 95.4549 45.4439 102.109 53.6506 102.109H181.676C189.883 102.109 196.536 95.4549 196.536 87.2472V36.2938C196.536 28.0861 189.883 21.4324 181.676 21.4324Z" fill="#7C98E3"/>
<path d="M108.023 59.1195C108.033 65.2107 106.033 71.1348 102.331 75.972C99.7412 79.3747 96.3994 82.1323 92.5672 84.0294C88.7349 85.9265 84.516 86.9116 80.24 86.9078C69.775 86.9078 59.1252 81.4098 53.4053 73.042C50.7396 69.1428 49.1484 64.6195 49.1484 59.7417C49.1484 44.3957 61.3253 31.335 80.24 31.335C87.6081 31.335 94.6745 34.2622 99.8848 39.4728C105.095 44.6833 108.022 51.7504 108.023 59.1195Z" fill="white"/>
<path d="M102.331 75.9721C99.7411 79.3748 96.3994 82.1324 92.5671 84.0295C88.7349 85.9265 84.5159 86.9117 80.2399 86.9079C69.7749 86.9079 59.1251 81.4098 53.4053 73.042C57.468 71.3451 62.4111 69.8612 68.41 68.811C71.2378 68.317 74.0657 68.3905 76.9879 68.4471C77.845 68.466 78.689 68.5049 79.5197 68.564C80.3781 68.6269 81.2227 68.7111 82.0535 68.8167C90.5805 69.8782 97.4899 73.0326 102.331 75.9721Z" fill="#EC9B57"/>
<path d="M73.2743 66.0448L75.8703 60.6278L76.6244 59.0515L81.0698 49.7825L80.0367 59.5041L79.4165 65.3491L79.2279 67.195C79.0941 68.4488 79.8161 68.824 80.5796 70.0439C80.8907 70.5379 82.8928 73.5528 79.9952 74.3523C76.385 75.3497 70.3804 72.1462 68.416 68.8202C68.4292 68.8089 72.4335 67.7945 73.2743 66.0448Z" fill="#DDE6FD"/>
<path d="M89.3529 47.2786C89.4654 49.0805 89.1988 50.8861 88.5705 52.5787C87.5205 55.4352 85.5938 47.7462 85.5938 47.7462L89.3529 47.2786Z" fill="#7C98E3"/>
<path d="M87.7725 52.9629C87.8887 47.1513 84.0758 42.3619 79.2561 42.2655C74.4364 42.1691 70.435 46.8022 70.3188 52.6138C70.2026 58.4254 74.0155 63.2149 78.8352 63.3113C83.6549 63.4077 87.6563 58.7746 87.7725 52.9629Z" fill="#DDE6FD"/>
<path d="M71.5757 50.186L75.8194 50.3745C76.2791 50.3965 76.738 50.315 77.1621 50.1362C77.5862 49.9574 77.9649 49.6858 78.2702 49.3413C79.324 48.127 80.4552 47.5915 84.3313 48.3137C89.2329 49.2281 92.9337 46.7676 93.848 44.2636C94.7906 41.7069 92.5283 39.5499 89.8569 40.438C87.1855 41.326 88.7107 38.4035 86.3749 37.7229C82.0105 36.4539 80.6682 39.7649 77.0391 39.1144C72.277 38.2602 63.175 40.6228 65.9934 49.6486L71.5757 50.186Z" fill="#7C98E3"/>
<path d="M66.001 49.6449C66.001 49.6449 67.9654 56.2988 71.9904 57.3603C71.9904 57.3603 69.3831 52.1262 76.7846 50.2633C76.7846 50.2633 70.5293 48.31 66.001 49.6449Z" fill="#7C98E3"/>
<path d="M71.2601 53.9343C72.0538 54.6207 73.1944 54.6018 73.8071 53.8948C74.4198 53.1877 74.2746 52.0545 73.4809 51.3682C72.6872 50.6819 71.5486 50.7007 70.9358 51.4097C70.3231 52.1186 70.4683 53.248 71.2601 53.9343Z" fill="#DDE6FD"/>
<path d="M148.17 40.7246H121.614C120.894 40.7246 120.31 41.3088 120.31 42.0294V42.1538C120.31 42.8744 120.894 43.4586 121.614 43.4586H148.17C148.89 43.4586 149.474 42.8744 149.474 42.1538V42.0294C149.474 41.3088 148.89 40.7246 148.17 40.7246Z" fill="white"/>
<path d="M157.243 50.105H121.687C121.325 50.1041 120.978 49.9597 120.722 49.7036C120.466 49.4474 120.321 49.1003 120.32 48.7381C120.321 48.3758 120.466 48.0287 120.722 47.7726C120.978 47.5164 121.325 47.3721 121.687 47.3711H157.243C157.605 47.3721 157.952 47.5164 158.208 47.7726C158.464 48.0287 158.609 48.3758 158.61 48.7381C158.609 49.1003 158.464 49.4474 158.208 49.7036C157.952 49.9597 157.605 50.1041 157.243 50.105Z" fill="white"/>
<path d="M182.103 40.7246H155.548C154.827 40.7246 154.243 41.3088 154.243 42.0294V42.1538C154.243 42.8744 154.827 43.4586 155.548 43.4586H182.103C182.824 43.4586 183.408 42.8744 183.408 42.1538V42.0294C183.408 41.3088 182.824 40.7246 182.103 40.7246Z" fill="white"/>
<path d="M148.17 62.125H121.614C120.894 62.125 120.31 62.7092 120.31 63.4298V63.5542C120.31 64.2748 120.894 64.859 121.614 64.859H148.17C148.89 64.859 149.474 64.2748 149.474 63.5542V63.4298C149.474 62.7092 148.89 62.125 148.17 62.125Z" fill="white"/>
<path d="M148.17 75.7815H121.614C120.894 75.7815 120.31 76.3657 120.31 77.0862V77.2107C120.31 77.9313 120.894 78.5154 121.614 78.5154H148.17C148.89 78.5154 149.474 77.9313 149.474 77.2107V77.0862C149.474 76.3657 148.89 75.7815 148.17 75.7815Z" fill="white"/>
<path d="M136.853 68.7712H121.314C120.759 68.7712 120.31 69.2212 120.31 69.7762V70.5002C120.31 71.0553 120.759 71.5052 121.314 71.5052H136.853C137.408 71.5052 137.857 71.0553 137.857 70.5002V69.7762C137.857 69.2212 137.408 68.7712 136.853 68.7712Z" fill="white"/>
<path d="M153.489 71.5052H141.182C140.82 71.5042 140.473 71.3599 140.217 71.1037C139.961 70.8476 139.816 70.5005 139.815 70.1382C139.816 69.776 139.961 69.4289 140.217 69.1727C140.473 68.9166 140.82 68.7722 141.182 68.7712H153.489C153.851 68.7727 154.198 68.9173 154.453 69.1734C154.709 69.4295 154.853 69.7763 154.854 70.1382C154.853 70.5001 154.709 70.847 154.453 71.1031C154.198 71.3592 153.851 71.5037 153.489 71.5052Z" fill="white"/>
<path d="M182.166 68.7712H157.959C157.274 68.7712 156.719 69.3267 156.719 70.0119V70.2646C156.719 70.9497 157.274 71.5052 157.959 71.5052H182.166C182.851 71.5052 183.406 70.9497 183.406 70.2646V70.0119C183.406 69.3267 182.851 68.7712 182.166 68.7712Z" fill="white"/>
<path d="M182.103 62.125H155.548C154.827 62.125 154.243 62.7092 154.243 63.4298V63.5542C154.243 64.2748 154.827 64.859 155.548 64.859H182.103C182.824 64.859 183.408 64.2748 183.408 63.5542V63.4298C183.408 62.7092 182.824 62.125 182.103 62.125Z" fill="white"/>
<path d="M54.5312 0H38.3746C36.7601 0 35.2117 0.641437 34.0701 1.7832C32.9285 2.92497 32.2871 4.47352 32.2871 6.08823V22.2469C32.2871 23.8616 32.9285 25.4101 34.0701 26.5519C35.2117 27.6937 36.7601 28.3351 38.3746 28.3351H42.4656C42.8582 28.3352 43.2402 28.4628 43.5541 28.6988C43.8679 28.9348 44.0966 29.2664 44.2057 29.6436L46.4529 37.4269L48.9037 29.604C49.0195 29.2362 49.2496 28.9148 49.5605 28.6867C49.8714 28.4585 50.2468 28.3353 50.6325 28.3351H54.5293C56.1438 28.3351 57.6921 27.6937 58.8338 26.5519C59.9754 25.4101 60.6168 23.8616 60.6168 22.2469V6.08823C60.6168 4.47385 59.9756 2.92558 58.8344 1.78387C57.6932 0.642159 56.1453 0.000499961 54.5312 0Z" fill="#DDE6FD"/>
<path d="M51.6123 8.33959C51.6123 7.25328 51.181 6.21143 50.4131 5.44312C49.6452 4.6748 48.6037 4.24293 47.5175 4.24243C46.431 4.24243 45.3891 4.67408 44.6208 5.44245C43.8525 6.21082 43.4209 7.25296 43.4209 8.33959C43.4209 8.87755 43.5269 9.41024 43.7328 9.90723C43.9387 10.4042 44.2405 10.8557 44.6209 11.236C45.0013 11.6164 45.453 11.918 45.95 12.1237C46.447 12.3294 46.9797 12.4351 47.5175 12.4349C48.6035 12.4349 49.6451 12.0034 50.413 11.2354C51.1809 10.4674 51.6123 9.42573 51.6123 8.33959Z" fill="#7C98E3"/>
<path d="M40.0559 23.1576H54.9739C55.4234 23.1577 55.8654 23.042 56.2572 22.8216C56.6491 22.6012 56.9775 22.2836 57.2109 21.8993C57.4443 21.515 57.5748 21.0771 57.5898 20.6278C57.6048 20.1784 57.5038 19.7328 57.2965 19.3338C55.9994 16.845 53.2639 14.0544 47.5139 14.0544C41.7639 14.0544 39.0303 16.8412 37.7333 19.3338C37.526 19.7328 37.4249 20.1784 37.4399 20.6278C37.4549 21.0771 37.5854 21.515 37.8188 21.8993C38.0522 22.2836 38.3807 22.6012 38.7725 22.8216C39.1643 23.042 39.6063 23.1577 40.0559 23.1576Z" fill="#7C98E3"/>
<path d="M38.6756 7.3535L38.8359 9.97242C38.8431 10.0917 38.8975 10.2032 38.9869 10.2824C39.0764 10.3616 39.1936 10.402 39.3128 10.3948L41.7957 10.2439C41.8546 10.2401 41.9138 10.248 41.9697 10.267C42.0256 10.2861 42.0772 10.316 42.1215 10.3551C42.1658 10.3942 42.202 10.4416 42.2279 10.4947C42.2539 10.5478 42.2691 10.6054 42.2727 10.6644C42.2799 10.7837 42.2395 10.9009 42.1603 10.9904C42.0811 11.0798 41.9696 11.1342 41.8504 11.1414L39.3675 11.2941C39.3085 11.2975 39.2508 11.3125 39.1977 11.3382C39.1445 11.3639 39.0969 11.3999 39.0577 11.4441C39.0185 11.4882 38.9883 11.5396 38.969 11.5955C38.9497 11.6513 38.9416 11.7103 38.9452 11.7693L39.1073 14.4203C39.1145 14.5395 39.0741 14.6568 38.9949 14.7462C38.9157 14.8357 38.8043 14.89 38.685 14.8973H38.6247C38.5056 14.904 38.3886 14.8634 38.2993 14.7843C38.21 14.7052 38.1555 14.594 38.1477 14.475L37.9875 11.8353C37.9802 11.716 37.9259 11.6045 37.8364 11.5253C37.747 11.4461 37.6298 11.4057 37.5105 11.4129L35.0239 11.5638C34.9051 11.571 34.7884 11.5308 34.6993 11.4519C34.6102 11.3731 34.5561 11.2621 34.5488 11.1433C34.545 11.0844 34.5528 11.0252 34.5719 10.9693C34.591 10.9134 34.6209 10.8618 34.6599 10.8175C34.699 10.7732 34.7464 10.737 34.7995 10.711C34.8526 10.6851 34.9102 10.6699 34.9692 10.6663L37.4558 10.5136C37.5148 10.51 37.5725 10.4948 37.6256 10.4688C37.6786 10.4429 37.7261 10.4067 37.7651 10.3624C37.8042 10.3181 37.8341 10.2665 37.8532 10.2105C37.8722 10.1546 37.8801 10.0955 37.8762 10.0365L37.7179 7.4176C37.7141 7.35864 37.7219 7.29951 37.741 7.24359C37.76 7.18768 37.79 7.13608 37.829 7.09176C37.8681 7.04744 37.9155 7.01125 37.9686 6.98531C38.0217 6.95936 38.0793 6.94416 38.1383 6.94056H38.1986C38.3164 6.93326 38.4322 6.97241 38.5214 7.04961C38.6106 7.12682 38.666 7.23593 38.6756 7.3535Z" fill="#7C98E3"/>
<path d="M104.861 99.7498C104.861 99.7498 96.9584 99.8403 96.1892 100.996C95.3465 102.274 95.7593 111.66 97.9915 117.175C99.2489 120.279 100.459 120.249 102.116 119.747L109.397 117.543L104.861 99.7498Z" fill="#EC9B57"/>
<path d="M104.088 100.131C104.614 99.6329 109.305 97.5759 110.911 93.8841C112.643 89.9 111.288 84.1719 114.304 84.0927C117.234 84.0135 119.106 94.6288 119.217 95.2718C119.218 95.2757 119.219 95.2795 119.222 95.2829C119.224 95.2862 119.227 95.289 119.23 95.2912C119.234 95.2933 119.237 95.2947 119.241 95.2953C119.245 95.2958 119.249 95.2955 119.253 95.2944C119.845 95.1719 127.567 93.7596 129.999 94.8061C132.708 95.9694 131.396 98.9183 131.396 98.9183C132.226 98.99 135.672 100.297 132.78 104.324C132.777 104.329 132.774 104.334 132.773 104.34C132.772 104.345 132.772 104.351 132.773 104.357C132.774 104.362 132.776 104.367 132.779 104.372C132.782 104.377 132.786 104.381 132.791 104.384C133.37 104.88 136.422 107.037 132.09 109.941C132.09 109.941 134.597 112.756 131.349 114.483C128.101 116.21 110.873 118.333 109.395 117.543C105.821 115.629 101.807 102.29 104.088 100.131Z" fill="#DDE6FD"/>
</g>
<defs>
<clipPath id="clip0_148_1552">
<rect width="196.535" height="120" fill="white"/>
</clipPath>
</defs>
</svg>
